<svg id="Group_5" data-name="Group 5" xmlns="http://www.w3.org/2000/svg" xmlns:xlink="http://www.w3.org/1999/xlink" width="1275.786" height="483.52" viewBox="0 0 1275.786 483.52">
  <defs>
    <clipPath id="clip-path">
      <rect id="Rectangle_1" data-name="Rectangle 1" width="1275.786" height="483.52" fill="#fff"/>
    </clipPath>
  </defs>
  <g id="Group_1" data-name="Group 1" clip-path="url(#clip-path)">
    <path id="Path_1" data-name="Path 1" d="M142.739,129c-.4-.064-.8-.128-1.2-.2-3.511,8.884-7.018,17.767-10.866,27.477,7.986-.078,14.973.312,22.732-.337-3.773-9.522-7.217-18.235-10.664-26.945M6.078,113.024c15.21-1.8,15.2-1.8,20.682,10.965q11.182,26.05,22.406,52.088c.727,1.67,1.071,3.589,2.7,4.812,1.926-1.17,2.2-3.358,2.979-5.156C63.2,156.5,71.6,137.3,79.675,117.964c1.766-4.234,3.922-6.316,8.582-5.589,1.982.312,4.039.053,6.281.507-1.741,1.28-3.865,1.972-4.678,4.053a12.253,12.253,0,0,0-.457,6.089q2.734,20.783,5.561,41.57c1.018,7.539,2.121,15.061,3.2,22.59.2,1.429.5,2.837.638,4.266.337,3.511,2.266,6.046,5.614,6.383a7.243,7.243,0,0,0,7.355-4.465c.89-1.841,1.713-3.727,2.472-5.631q14.118-35.513,28.222-71.029c.738-1.833.9-4.011,2.773-5.351,2.383.908,2.436,3.248,3.153,4.993q14.5,35.688,28.842,71.441c1.677,4.16,3.075,8.568,8.082,10.4h-18.15c2.124-2.071,1.791-4.2.933-6.305-4.007-9.9-8.1-19.774-12.036-29.708-.986-2.482-2.447-3.415-5.114-3.337-5.752.174-11.529.2-17.281-.011-2.99-.1-4.419,1.124-5.447,3.8-3.773,9.774-7.717,19.48-11.572,29.222-.8,2.014-2.255,4.071.887,6.305H86.023c3.727-2.546,2.61-5.972,2.188-9.167-1.766-13.249-3.66-26.48-5.515-39.708q-1.314-9.426-2.631-18.863c-.411-.1-.823-.184-1.234-.28-10.121,22.406-19.48,45.166-30.176,69.047-10.27-23.445-20.008-45.634-29.64-67.607-2.514.337-2.255,1.787-2.4,2.915-2.624,18.937-5.2,37.878-7.844,56.816-.379,2.752-.447,5.288,2.372,7.043H0c4.592-1.95,4.671-5.4,5.124-8.529,2.266-15.664,4.433-31.353,6.632-47.031.8-5.7,1.7-11.387,2.4-17.1.844-6.869-.823-9.564-8.082-12.675" transform="translate(0 283.551)" fill="#fff"/>
    <path id="Path_2" data-name="Path 2" d="M70.282,133.807v16.632c0,.206.021.411.011.617-.163,1.961.465,3.11,2.709,3,3.887-.163,7.83.131,11.678-.379,8.05-1.06,13.281-6.011,14.887-13.476a21.152,21.152,0,0,0-19.849-26.012c-1.844-.11-3.706.043-5.536-.131-2.83-.248-4.1.638-3.958,3.748.231,5.33.057,10.671.057,16M55.763,111.891c11.894,0,23.824-.521,35.676.131,14.192.791,21.519,13.465,16.143,26.672a27.87,27.87,0,0,1-8.525,11.15c-1.419,1.16-2.894,2.241-4.571,3.532,7.419,11.852,14.746,23.5,23.9,33.846,6.933,7.834,12.437,8.937,22.537,5.231a7.133,7.133,0,0,1,1.84-.128c-9.036,8.32-24.1,8.32-32.4.1a84.883,84.883,0,0,1-9.607-12.036C97,174.99,92.435,169.9,89.914,163.961c-3.685-8.646-10.369-7.681-17.292-7.454-1.982.064-2.33,1.2-2.33,2.816.021,10.5.011,20.987.043,31.474.011,3.053.911,5.578,4.323,6.621H54.082c6.178-1.865,6.078-5.756,6.078-9.536.035-11.515.021-23.033.021-34.548,0-10.7.057-21.388-.043-32.08-.032-3.642.248-7.649-4.376-9.362" transform="translate(137.71 284.407)" fill="#fff"/>
    <path id="Path_3" data-name="Path 3" d="M206.078,134.34c0,2.472-.152,4.954.032,7.4.3,4.039-1.982,9.7,1.018,11.745,3.575,2.426,9.2,1.06,13.859.365,6-.908,10.767-3.834,13.345-9.685,5.83-13.206-3.412-28.743-17.778-29.793-1.841-.131-3.7-.174-5.546-.152-4.812.053-4.866.074-4.919,4.692-.064,5.146-.011,10.281-.011,15.427m24.431,19.221c7.128,11.529,14.334,22.753,23.033,32.924,7.529,8.809,12.9,10,23.923,5.951.3-.11.723.128,1.1.216-8.774,8.157-23.977,8.167-32.222-.057a86.149,86.149,0,0,1-9.965-12.522q-6.958-10.176-13.674-20.512c-1.341-2.089-2.805-3.153-5.458-3.021-13.285.649-10.823-2.114-11.054,11.029-.117,7.2-.085,14.387.035,21.583.043,3.248-.035,6.759,4.234,8.267H191.258c4.518-2.646,4.667-2.646,4.678-7.564q.085-34.843.021-69.675c0-3.5-.117-6.986-4.961-7.94,12.657-.443,24.963-1.117,37.183-.021,13.022,1.17,19.969,12.49,15.99,25.005a26.875,26.875,0,0,1-8.71,12.448c-1.55,1.3-3.185,2.5-4.951,3.89" transform="translate(486.337 284.232)" fill="#fff"/>
    <path id="Path_4" data-name="Path 4" d="M129.1,133.773c0,2.677-.16,5.366.035,8.018.3,4.043-1.986,9.568,1.06,11.745,3.326,2.372,8.777,1,13.238.411,6.511-.844,11.625-3.922,14.182-10.359,5.277-13.281-3.922-28.19-18.058-29.2-2.05-.142-4.128.011-6.167-.184-3.142-.3-4.507.77-4.355,4.139.238,5.135.064,10.281.064,15.426m-15.036-21.526c12.816-.4,25.331-1.223,37.736.074,12.448,1.3,19.09,12.245,15.59,24.3a26.7,26.7,0,0,1-8.873,13.043c-1.55,1.312-3.2,2.514-4.972,3.9,7.2,11.689,14.515,23.1,23.423,33.381,7.291,8.4,12.77,9.522,23.5,5.5.316-.121.748.106,1.128.181-8.4,7.986-23.6,8.291-31.711.4a77.914,77.914,0,0,1-7.543-8.937c-5.858-7.681-11.125-15.785-16.239-23.977-1.571-2.514-3.295-3.628-6.4-3.585-10.5.142-10.5.011-10.5,10.38,0,7.4-.074,14.8.043,22.2.074,4.94.575,5.685,4.117,8.483H114.121c4.681-2.809,4.844-2.809,4.855-7.681q.1-34.842.032-69.674c0-3.511-.131-7-4.94-8" transform="translate(290.454 284.218)" fill="#fff"/>
    <path id="Path_5" data-name="Path 5" d="M304.2,154.763c3.39-.933,6.738-1.777,9.621-3.823,6.976-4.975,8.125-12.125,6.791-19.806-1.309-7.586-5.242-13.316-13.249-15.341-4.039-1.028-8.135-1-12.263-1.028-2.1-.011-2.99.865-2.957,2.88.01,1.032-.032,2.06-.032,3.089q0,33.332.01,66.664c0,1.028.064,2.057.053,3.075-.032,3.348.66,6.178,4.67,7.043H277.1c4.291-1.224,4.713-4.461,4.7-8.157-.053-22.838.01-45.677-.064-68.5-.01-3.553.738-7.781-5.06-8.518,12.047-.528,23.729-1.376,35.286.152,13.164,1.734,19.622,10.033,18.831,22.948-.475,7.639-4.075,13.228-11.008,16.554a28.214,28.214,0,0,1-15.59,2.773" transform="translate(704.506 284.218)" fill="#fff"/>
    <path id="Path_6" data-name="Path 6" d="M225.947,123.237a6.025,6.025,0,0,1-2.514-4.128c-.886-3-2.947-4.323-5.958-4.323-9.653-.011-19.306-.011-29.069-.011-1.018,4.334-.475,8.44-.528,12.49-.1,7.412-.011,14.813-.036,22.221-.011,1.972-.032,3.642,2.788,3.6q12.639-.2,25.3-.046c1.929.036,3.131-1.44,4.9-1.83a17.9,17.9,0,0,1,.11,6.263c-5.309-2.124-21.04-2.709-32.86-1.312,0,10.4-.241,20.856.1,31.3.163,5.06,2.351,6.979,7.518,7.132,8.625.259,17.281.216,25.906-.025,4.465-.117,5.22-1.092,8.462-7.171.153.085.433.174.443.27.738,10.142.727,10.142-9.188,10.142H173.38c4.181-1.745,4.334-5.146,4.334-8.646-.011-22.622.043-45.244-.075-67.866-.025-3.511.638-7.866-4.9-8.493,1.309-1.723,3.085-1.028,4.582-1.039q21.6-.1,43.194-.032c5.387.011,5.387.053,5.429,5.319.011,1.752,0,3.518,0,6.185" transform="translate(439.857 284.257)" fill="#fff"/>
    <path id="Path_7" data-name="Path 7" d="M355.81,128.953c-.411-.011-.812-.021-1.224-.046-3.532,8.9-7.054,17.781-10.866,27.434,8.072-.348,15.114.379,22.739-.543-3.67-9.274-7.16-18.061-10.649-26.846M319.949,198.3c4.117-1.724,5.309-5.4,6.663-8.809,5.805-14.473,11.515-28.981,17.271-43.478q6.123-15.453,12.263-30.9c.521-1.319.759-2.794,2.1-3.738,2.458.337,2.273,2.677,2.88,4.185,9.664,23.757,19.2,47.57,28.832,71.341,1.745,4.3,3.021,9.047,8.146,11.224H380.662a6.157,6.157,0,0,0,.585-6.142q-6.224-14.74-12.047-29.665c-.954-2.436-2.263-3.585-4.972-3.522-5.958.142-11.93.174-17.877-.01-2.784-.075-4,1.2-4.929,3.585-3.8,9.752-7.724,19.448-11.646,29.158-.911,2.252-1.635,4.44.67,6.77Z" transform="translate(814.693 283.602)" fill="#fff"/>
    <path id="Path_8" data-name="Path 8" d="M116.612,128.95a195.566,195.566,0,0,0-11.862,27.466c8-.348,15.015.369,22.579-.521-3.717-9.359-7.217-18.157-10.717-26.945m2.667-17.6c2.146,1.213,2.3,3.227,2.958,4.866,9.568,23.587,19.026,47.205,28.622,70.777,1.734,4.27,2.731,9.3,8.213,11.192H140.71c3.348-2.046,2-4.44,1.138-6.617-3.89-9.72-7.954-19.374-11.8-29.1-.954-2.419-2.167-3.653-4.919-3.589-5.947.153-11.919.153-17.877,0-2.7-.064-4,1.043-4.961,3.522-3.848,9.948-7.887,19.828-11.887,29.718-.865,2.124-1.525,4.185,1.454,6.263H79.734c5.039-2.252,6.642-5.958,8.16-9.837q14.086-35.8,28.363-71.536c.745-1.865,1.028-4.011,3.022-5.656" transform="translate(203.028 283.523)" fill="#fff"/>
    <path id="Path_9" data-name="Path 9" d="M276.445,156.425h22.569c-3.727-9.426-7.227-18.246-11.281-28.495-4.05,10.228-7.561,19.079-11.288,28.495m15.168-45.276c2.1,5.114,3.922,9.437,5.678,13.781q12.82,31.7,25.612,63.4c1.614,4,2.926,8.224,8.972,10.143-6.891.986-12.483.39-18.941.564,2.167-2.408,1.617-4.564.7-6.805-3.975-9.685-7.944-19.384-11.756-29.133-1.05-2.667-2.515-3.848-5.483-3.738-5.752.206-11.515.184-17.267.011-2.656-.074-4.142.855-5.1,3.348-3.859,9.958-7.855,19.859-11.8,29.782-.826,2.06-1.9,4.139,1.213,6.373H252.49c4.443-1.908,5.656-6.178,7.227-10.132q14.091-35.492,28.147-71.008c.791-2,1.149-4.319,3.748-6.586" transform="translate(642.921 283.021)" fill="#fff"/>
    <path id="Path_10" data-name="Path 10" d="M189.346,199.091c-2.277-2.025-2.656-4.312-3.458-6.295-9.338-23.023-18.569-46.088-27.952-69.079-1.83-4.475-3.153-9.5-9.88-11.8h18.916a5.5,5.5,0,0,0-.769,5.373q12.549,30.8,24.962,61.66a6.025,6.025,0,0,0,1.106,1.341c2.014-.972,2.146-3.032,2.805-4.656q11.293-27.986,22.416-56.036c.975-2.458,3.38-4.993-.66-7.9H229.26c-6.057,2.4-7.422,6.986-9.146,11.288q-14.155,35.135-28.232,70.292c-.738,1.823-1.571,3.61-2.536,5.809" transform="translate(376.998 284.429)" fill="#fff"/>
    <path id="Path_11" data-name="Path 11" d="M401.332,178.747c0,4.724.043,9.458-.011,14.182-.053,4.355-.1,4.465-4.4,4.486-11.714.053-23.434.021-35.148.021H343.91c3.706-1.734,4.333-4.844,4.333-8.4q-.048-34.518-.021-69.047c0-3.575-.163-7.061-4.809-8.21h19.728c-4.529.887-4.845,4.149-4.834,7.834.057,20.14-.032,40.279.057,60.422.043,9.944,3.738,13.756,13.7,14.277,4.3.238,8.625.153,12.937.075,9.316-.17,12.395-2.7,14.54-11.721.316-1.344.681-2.677,1.028-4.018l.759.1" transform="translate(874.44 284.633)" fill="#fff"/>
    <path id="Path_12" data-name="Path 12" d="M304.142,125.274c-1.876.064-2.568-1.429-3.607-2.287-10.834-8.915-23.275-10.823-36.609-8.178-15.646,3.11-30.814,17.682-28.094,39.077,1.333,10.38,4.7,20.033,11.408,28.215,11.916,14.551,27.636,17.441,45.155,14.182a42.349,42.349,0,0,0,21.172-10.043c-2.557,7.008-6.469,9.965-13.033,11.245a111.531,111.531,0,0,1-39.212,1.149c-28.512-4.507-39.034-32.4-32.218-54.549a45.815,45.815,0,0,1,40.183-32.495,68.378,68.378,0,0,1,26.2,2.7c5.784,1.755,8.2,5.319,8.657,10.986" transform="translate(578.272 283.421)" fill="#fff"/>
    <path id="Path_13" data-name="Path 13" d="M305.878,121a36.462,36.462,0,0,1-3.954-9.979c3.11,2.578,6.206,2.266,9.252,2.266q26.23.016,52.457,0c3.068,0,6.167.163,9.525-2.114a33.265,33.265,0,0,1-4.043,9.795c.089-4.55-2.177-4.812-4.809-4.788-5.958.074-11.94.192-17.888-.046-3.217-.128-3.738,1.312-3.727,4.043.085,14.6.032,29.208.042,43.811,0,9.263.043,18.519.032,27.782,0,3.38.674,6.227,4.713,7.213H327.06c1.341-1.667,4.277-1.018,4.688-3.259a30.39,30.39,0,0,0,.663-5.493q.08-34.566.021-69.121c0-4.791-.1-4.855-4.67-4.9-5.763-.057-11.515-.011-17.281,0-2.372.011-4.8-.032-4.6,4.788" transform="translate(768.796 282.69)" fill="#fff"/>
    <path id="Path_14" data-name="Path 14" d="M314.3,197.4H294.8c4.128-.965,4.692-4.1,4.745-7.454.1-5.546.12-11.082.131-16.629q.016-24.007-.011-48.017c0-2.06,0-4.117-.184-6.156-.433-4.919-.5-4.951-5.008-7.43h20.7c-1.525,1.677-3.823,1.192-4.614,2.848-.833,1.766-.638,3.607-.638,5.429q-.048,34.481-.021,68.958c.011,3.521-.358,7.3,4.387,8.451" transform="translate(749.836 284.46)" fill="#fff"/>
    <path id="Path_15" data-name="Path 15" d="M160.146,197.188H140.808c.908-1.734,3.617-1.3,3.844-3.369.174-1.624.7-3.241.727-4.866.1-5.742.064-11.494.075-17.246,0-15.81.021-31.626-.021-47.446-.011-2.447-.323-4.9-.454-7.355-.131-2.61-1.55-4.085-4.018-5.124h20.225c-2.036,1.28-4.17,1.05-4.983,2.752a10.773,10.773,0,0,0-.6,4.823c-.021,23.2.011,46.411-.032,69.618,0,3.61.053,7.022,4.571,8.213" transform="translate(358.542 284.633)" fill="#fff"/>
    <path id="Path_16" data-name="Path 16" d="M338.37,114.649a13.233,13.233,0,0,0-.3,2.277c.011.518.454.628.929.365a1.259,1.259,0,0,0,.574-1.947c-.174-.3-.67-.4-1.2-.7M407.924,93.6a2.754,2.754,0,0,0-2.11-1.972c-.738-.131-1.138.259-1.1.89a1.8,1.8,0,0,0,1.592,1.536c.489.089,1.075-.28,1.614-.454m19.654-2.752c.521-1.745.294-2.536-.66-3.153-.422-.27-.844-.39-.965.074-.347,1.323.759,1.986,1.624,3.078M553.915,74.813c-1.365-.479-2.426-.284-3.075.986-.078.138.27.723.433.734,1.245.067,1.8-.965,2.642-1.72M423.68,124.67c.876-.011,1.461-.305,1.2-1a1.909,1.909,0,0,0-1.291-.911c-.475-.106-1.3.021-.964.869.184.465.759.77,1.053,1.039m-160.436,6.848a1.654,1.654,0,0,0-1.571-1.628c-.465-.021-1.309.4-1.351.706-.11.911.571,1.419,1.44,1.408a4.947,4.947,0,0,0,1.482-.486M393.278,80.292c.089-.585,1.44.057.748-1.05a2.354,2.354,0,0,0-1.56-.7c-.67-.078-1.291.376-.933,1.05.206.39,1.029.443,1.745.7m138.853-6.88a11.059,11.059,0,0,0-.3,1.064c-.131,1.092-.7,2.3.521,3.131a1.1,1.1,0,0,0,1.018-.294c.532-.986-.248-1.819-.511-2.716a6.318,6.318,0,0,0-.724-1.184M201.546,87.466c.454-1.582-.3-1.724-.823-1.819-1.518-.284-2.234.454-2.188,1.982.011.606.117,1.309.78,1.33a2.253,2.253,0,0,0,2.231-1.493m260.3,25.959c.986-1.9,2.319-3.11.9-4.7-.2-.216-.933-.348-1.018-.216-.911,1.2-.674,2.568-.411,3.922a5.557,5.557,0,0,0,.528,1m25.463-39.534c.248-1.429-1.323-1.3-2.33-1.766a.872.872,0,0,0-1.344.617,2.391,2.391,0,0,0,1.844,2.763c.833.227,1.525-.259,1.83-1.614m155.2,37.626c2.841-1.05,5.071-1.507,5.993-5.6-2.5,2.025-4.411,2.912-5.993,5.6M498.6,136.3a9.469,9.469,0,0,0,1.919-1.323c1.007-1.3,1.862-2.7.6-4.323a1.211,1.211,0,0,0-1.561-.411c-1.56.78-1.408,2.277-1.4,3.674a17.96,17.96,0,0,0,.443,2.383m44.084-54.528c2.493-4.408,2.44-4.433,1.192-8.366-1.539,2.709-1.83,4.866-1.192,8.366M257.5,132.806c1.734-3.8,2.082-6.11-1.688-7.639-.837,2.709-.185,4.713,1.688,7.639M430.461,97.63c3.295,4.355,3.295,4.355,7.128,3.748-1.376-2.461-3.617-3.014-7.128-3.748m235.752,4.883c-2.688,0-4.724-.021-6.763.011-1.34.025-1.72.848-1.514,2.039.216,1.266,1,1.734,2.178,1.266,1.84-.713,4.075-.574,6.1-3.316M407.133,81.345c-.465-3.468-2.284-4.951-5.231-5.224-.259-.032-.844.468-.833.716.043,3.1,2.511,3.748,4.766,4.582a5.422,5.422,0,0,0,1.3-.074M458.814,84q0,3.511-.011,7.043c0,.812,0,1.692,1.085,1.745a1.739,1.739,0,0,0,1.709-1.419c.869-2.784-.575-5.05-2.784-7.369M306.506,95.505c-1.3,0-2.816.606-2.5,1.8.585,2.2,2.6,3.553,4.649,4.344.954.379,1.745-.78,1.887-1.819.28-2.071-1.723-4.16-4.032-4.323m291.16,16.033a8.958,8.958,0,0,0,4.819-2.926c.684-.876.943-1.8-.11-2.61a1.58,1.58,0,0,0-2.543.216c-1.259,1.475-4.585,1.887-2.167,5.319M571.3,80.6c3.759-.465,5.731-2.071,7.1-4.724-5.625-2.557-5.614-2.557-6.589,2.472-.1.528-.238,1.06-.507,2.252m-38.875,5.451a6.948,6.948,0,0,0-5.763,3.912c-.663,1.17-1.766,2.794-.284,3.791,1.592,1.071,2.472-.638,3.131-1.844,1.043-1.9,1.95-3.9,2.915-5.859M423.84,136.317a6.445,6.445,0,0,0-1.731-4.961,2.228,2.228,0,0,0-3.284-.27,2.441,2.441,0,0,0-.227,3.77c1.277,1.44,3.021,1.872,5.242,1.461M570.285,88.842a10.9,10.9,0,0,0,5.213-1.419,2.858,2.858,0,0,0,1.635-3c-.174-1.83-1.646-1.309-2.773-1.319-1.365-.021-2.731,0-4.571,0,.121,1.915-.78,3.812.5,5.742M416.137,147.055c-2.294,5.7-1.451,9.77,2.525,12.1,1.429-4.518-.727-8.2-2.525-12.1m16.1-54.564c2.2,4.4,6.912,4.117,10.338,6.805-.78-6.015-2.6-7.139-10.338-6.805M207.092,87.8a7.464,7.464,0,0,0-6.153,5.114c-.216.745-.564,1.787.216,2.22,2.557,1.429,4.539-.326,6.607-1.454.358-.191.674-.465,1.032-.649,1.365-.692,2.4-1.624,1.72-3.316a3.135,3.135,0,0,0-3.422-1.915m387,19.37c-1.429.475-1.646,1.635-1.592,2.883.046.954-.27,1.688-1.287,1.44-4.94-1.234-4.064,2.731-5.32,5.341,8.405-1.149,9.621-2.663,8.2-9.664M442.908,80.207c-2.709,2.33-2.536,6.49-6.511,8.688,3.415.511,5.915.89,8.4,1.27.769-3.89.8-3.9-1.887-9.958M408.651,89.08c-1.309-5.319-5.642-5.071-9.284-5.688-1.624-.27-3.468.759-4.67-1.266-.344-.585-1.255-.273-1.387.27a1.831,1.831,0,0,0,.653,1.56c1.05.67,2.543-.553,3.617,1.213,2.482,4.117,6.738,3.805,11.072,3.912M436.213,75.83a7.737,7.737,0,0,0-4.681-.294c-2,.358-3.444,1.475-3.259,3.685a4.388,4.388,0,0,0,3.1,4.128c1.936.575,3.064-.77,3.8-2.241.791-1.582,1.851-3.188,1.039-5.277M655.628,96.665c1.851,2.316,5.124-.011,5.7,1.493,1.592,4.27,4.139,2.2,6.174,1.27,2.536-1.149,3.348-3.383,1.4-7.064-3.064,5.72-9.032,1.419-13.27,4.3M465.218,75.146c-2.156.121-3.773,2.224-3.674,4.791.121,3.107,2.287,5.795,4.475,5.568,2.036-.216,3.986-3.068,3.78-5.525-.206-2.646-2.394-4.94-4.582-4.834M196.506,100.272c.3-.8.6-1.17.543-1.475-.443-2.61-.933-5.21-1.44-7.8-.869-4.387-1.507-5.018-5.809-5.525-1.83-.216-3.085.692-2.124,2.436,2.408,4.376,4.518,9.047,8.83,12.362m231.408,5.3c-4.94,3.206-7.777,8.731-6.965,12.685.248,1.213.692,2.472,2.135,2.688s2.231-.844,2.805-1.95a7.126,7.126,0,0,0,.77-2.309c.433-3.433.791-6.88,1.255-11.114M184.091,89.945a14.466,14.466,0,0,0-.638,7.064A11.182,11.182,0,0,0,190,105.96a3.7,3.7,0,0,0,2.872.216c1.277-.759.713-2.241.248-3.295a40.853,40.853,0,0,0-9.025-12.937m258.233,66.5c-.269-4.507-.954-8.947-3.064-13.022-.954-1.841-1.9-3.78-4.323-3.912-.943-.053-2.028-.94-2.851.021-.759.869-.291,1.961.057,2.9,2.014,5.536,6.1,9.621,10.181,14.008m64.366-26.576c12.852-2.9,20.012-7.735,20.327-13.444-6.731,4.16-15.377,5.093-20.327,13.444M475.6,82.916c2.071.011,4.291.021,5.287-2.146a5.569,5.569,0,0,0-.7-5.763c-1.443-2.039-3.1-3.763-5.678-4.27-3.447-.674-4.312.291-3.585,3.88a25.577,25.577,0,0,1,.39,3.617c.216,4.149.6,4.582,4.288,4.681M361.9,126.383a38.016,38.016,0,0,0-15.6-8.83,7.051,7.051,0,0,0-3.021-.032c-1.713.291-2.319,2.209-.865,3.1,3.638,2.234,6.607,5.493,10.745,6.969,2.841,1.018,5.546,1.429,8.745-1.2M447.263,74.5c.975,3.848-1.809,7.486,1.334,10.338,1.56,1.429,1.539,2.468,1.028,4.17-.755,2.49-1.181,5.068.986,8.341a25.788,25.788,0,0,0,5.656-20.033c-3.021.057-2.525,3.653-4.961,4.117-.933-2.252,1.029-5.731-4.043-6.933m97.488,8.667c-6.046,4.671-11.66,9.579-15.31,16.565,11.745,1.465,19.359-6.8,15.31-16.565m-134.8,70.15c1.1-5.795.379-10.043.433-14.246,0-.865-.348-1.777-1.291-1.766-5.383.064-10.714-2.092-17.193-.465,3.422,2.72,6.21,4.929,8.993,7.139,3.021,2.4,5.568,5.309,9.057,9.337M369.7,81.193c1.582,3.88,1.8,7.649,5.983,8.082,5.763.606,11.4-.606,17.92-.443a24.257,24.257,0,0,0-11.224-8.139c-2.482-.919-5.234-1.223-7.564-2.4-2.4-1.223-4.408,2.451-7.008-.053-1.053-1.018-4.323,1.94-4.518,3.965-.206,2.092,1.213,2.816,2.926,3.252,3.053.755,2.337-1.929,3.486-4.259M550.373,94c3.748,0,6.816-.152,9.859.043,3.068.184,4.5-1.355,5.192-4.061.954-3.738,2.036-7.5-.067-11.192-.238-.433-1.1-.468-1.614-.78-3.812-2.372-7.107-.043-10.607,1.028-2.22.67-3.163,1.755-2.546,3.944A20.429,20.429,0,0,1,550.373,94M395.324,193.7c.479-.131.954-.262,1.433-.39a44.406,44.406,0,0,0-.057-15.657c-.454-2.209-1.092-4.809-3.142-5.805-4.3-2.114-6.248-6.447-9.717-9.3-1.376-1.124-2.72-2.351-4.83-1.582a27.209,27.209,0,0,0,2.426,9.72c2.536,5.632,4.234,6.032,9.5,2.372.911-.628,1.745-1.213,2.482.085a2.362,2.362,0,0,1-.294,2.83c-.617.766-1.5.411-2.263.617-3.9,1.018-4.064,1.114-2.234,4.8,2.071,4.181,4.454,8.213,6.7,12.309m97.031-58.887c-12.4,6.252-23.594,11.7-28.785,24.119,1.117,1.213,1.734.9,2.234.67,6.295-2.912,12.565-5.9,18.884-8.774a5.316,5.316,0,0,0,2.794-3.057c1.582-3.727,3.475-7.334,4.873-12.958m-227.667-7.334c3.738-8.614-2.224-16.37.259-24.647-6.316.78-11.572,2.33-17.292,2.1,1.075,11.352,10.153,15.763,17.033,22.544m91.038,4.908c9.057,15.416,24.594,20.693,37.325,30.346.887-3.77,1.571-6.749,2.273-9.717a8.329,8.329,0,0,0-3.2-9.242,133.232,133.232,0,0,0-14.54-10.291,28.2,28.2,0,0,0-8.352-3.795c-1.624-.344-3.9-.908-4.6.532-1.919,3.858-5.05,2.2-8.908,2.167m125.99,26.9c-6.348,2.046-11.125,3.77-16.012,5.114a10.316,10.316,0,0,0-7.8,7.855,49.335,49.335,0,0,0-1.482,6.6c-1.419,11.16-.532,22.384-1.085,33.587,2.007.184,2.319-1.291,2.982-2.177a70.126,70.126,0,0,0,8.472-15.668c4.625-11.377,8.2-23.186,14.927-35.307M518.977,84.15c2.177-1.018,3.5.032,4.919-.121,4.919-.518-2.851-6.043,2.536-6.454.16-.011-.369-1.376-1.064-1.876a7.584,7.584,0,0,0-5.827-1.408c-2.624.422-2.936,1.3-1.56,4.834-2.429.518-4.844.9-7.2,1.546-10.412,2.862-16.469,13-13.455,23.317,1.266,4.376.812,8.008-1.692,11.6a22.108,22.108,0,0,0-1.518,2.674c-.7,1.443-.78,2.873.89,3.663,1.333.617,2.341-.3,3.153-1.255a8.666,8.666,0,0,0,1.635-3.933c.511-2.2,1-4.4,1.692-6.547.433-1.309.922-2.351,3.053-1.972,8.54,1.518,13.912-2.305,16.058-10.788,1.149-4.585.195-8.887-1.624-13.285m-76.8,126.5c1.741-4.344,2.1-8.462,2.436-12.536,1.908-22.718-7.149-41.169-22.537-57.1-.606-.617-1.376-1.213-2.11-.738a2.164,2.164,0,0,0-.674,2.752,6.544,6.544,0,0,0,1.649,2.536c4.4,3.564,4.256,8.071,2.869,12.884-.844,2.958-1.787,5.9-.564,9.022,2.213-.986.284-3.6,1.95-4.745,1.681,15.267,3.153,19.48,16.98,47.921m-41.985-76.5c2.22-.2,4.692-.27,7.118-.66,2.4-.39,4.216-1.681,4.507-4.355.273-2.493-1.245-3.727-3.316-4.575-3.422-1.4-6.866-2.727-10.238-4.256-4.6-2.092-4.83-2.557-2.958-7.3.9-2.266.922-3.943-1.461-5.124-9.547-4.734-17.7-12.093-28.222-14.973-1.571-.436-2.124-1.117-.965-2.493.876-1.028-.153-1.454-.653-1.865-2.557-2.068-5.124-4.117-7.766-6.054-1.2-.89-2.947-1.433-4.064-.532-2.784,2.22-5.883,2.546-9.231,2.631A3.582,3.582,0,0,0,339.3,88.1c-.163,1.755.053,3.273,2.167,3.816,1.44.355,2.837,1.05,2.752,2.826-.174,3.834,2.525,5.351,5.3,6.816,2.731,1.429,5.5,2.763,8.267,4.124,3.27,1.628,5.752,3.848,6.554,7.66A12.388,12.388,0,0,0,368.4,120.1a54.655,54.655,0,0,0,31.786,14.051m.77,38.96c-1.06,6.242-1.007,11.788,1.3,17.193.454,1.075,1.55,1.9.564,3.273-3.358,4.649-1.227,9.479-.294,14.224,1.018,5.2,3.217,10.249,2.6,15.657-.464,4.039,1.28,6.327,4.844,7.376,3.823,1.128,6.2,3.631,8.213,6.912,2.447,4.021,4.766,8.171,8,11.639,4.27,4.571,7.259,3.975,9.341-1.823s1.745-11.788.486-17.615a109.546,109.546,0,0,0-17.842-40.836c-4.5-6.327-9.642-12.057-17.217-16m-90.552-13.7c3.131-.106,6.089.88,9.047,1.617a15.958,15.958,0,0,1,9.61,6.628c4.256,5.8,9.2,11.682,17.161,13.221,3.1.6,4.713,3.139,5.851,5.88a21.655,21.655,0,0,0,7.788,9.309,110.493,110.493,0,0,1,18.377,16.338c4.3,4.83,9.912,7.086,16.306,7.681,2.738.259,3.8-.78,3.518-3.458a39.678,39.678,0,0,0-3.153-11.831c-3.227-7.376-7.756-14-12.164-20.671-4-6.036-7.522-12.189-8.4-19.59a27.914,27.914,0,0,0-2.135-7.039c-1.007-2.525-3.294-4.444-5.763-3.543-3.826,1.408-5.525-.858-7.781-2.873-.965-.855-1.734-2.319-3.305-2.057-1.915.216.5,3.227-2.131,2.968a4.986,4.986,0,0,1-1.649-3.185c-.291-3.532-2.394-5.635-5.483-6.763-9.242-3.38-16.76-9.4-24.278-15.469a22.98,22.98,0,0,0-15.32-5.461,31.926,31.926,0,0,1-8.547-.879c-4.334-1.092-7.7-3.433-9.536-7.646,1.56-1.312,2.646.216,3.748.791a44.32,44.32,0,0,0,9.752,3.7c3.249.77,6.6,1.227,10.011-.064a4.479,4.479,0,0,0-2.656-3.121c-2.511-1.138-3.855-2.415-2.642-5.632.954-2.546-.975-4.77-3.011-6.252-2.809-2.06-5.809-3.848-8.767-5.688-.67-.411-1.656-1.018-2.22-.8-5.061,1.94-10.38,2.415-16.164,2.589,3.738,4.192,5.61,8.937,9.643,11.962a4.409,4.409,0,0,1-4.475-.422c-3.6-2.9-8.667-2.915-11.5-6.773-2.263,2.092-2.457,4.28-2.436,6.568.042,3.748,1.475,7.128,2.6,10.6.511,1.585,2.245,2.982.922,4.908-1.213.738-2.578-2.11-3.521-.043-.9,1.972.337,3.436,2.082,4.4,2.252,1.255,1.287-1.95,2.663-1.94,2.177-.11,2,2.057,2.968,3.107.9,1,1.876,1.791,3.163,1.011,5.408-3.295,8.852.032,12.245,3.532,2.727,2.826,5.5,5.621,9.458,6.649,4.734,1.227,6.791,4.518,6.781,9.047a12.4,12.4,0,0,0,3.479,8.788c-3.121,1.645-1.238,3.479.128,4.724,3.837,3.49,8.667,4.376,13.955,5.461-.734-4.433-3.738-5.093-6.227-6.327-2.667-1.323-6.068-1.17-8-3.958m-36.846-2.025a6.47,6.47,0,0,0,4.429,1.56,9.382,9.382,0,0,0-4.366-2.869c-3.89-3.025-7.887-5.908-11.646-9.082-4.961-4.192-8.937-9.348-10.185-15.763-.844-4.408-1.6-8.167-6.011-10.465-1.766-.911-2.408-3.284-2.883-5.3a50.188,50.188,0,0,1-1.45-7.844c-.184-2.674-1.376-3.337-3.869-3.486a26.037,26.037,0,0,0-10.887,1.514,28.527,28.527,0,0,1-19.87.642,12.239,12.239,0,0,0-2.373-.663c-3.447-.433-5.039.986-4.986,4.444s1.766,6.305,3.7,8.958a73.124,73.124,0,0,0,28.115,23.4c13.575,6.415,27.9,10.8,42.286,14.951m206.314-60.94c-.986,3.27-5.773,5.49-2.709,9.944.216.326-.638,1.419-1.039,2.124a17.661,17.661,0,0,1-6.348,6.532c-2.44,1.507-4.791,3.163-7.075,4.9a9,9,0,0,0-3.943,6c-.975,7.7.759,15.246.844,23.048,8.873-7.607,17.767-14.5,27.725-19.849,3.639-1.961,4.387-2.752,1.6-6.327-2.741-3.5-2.805-5.1.042-7.391,3.848-3.068,4.107-6.554,3.316-10.908-.681-3.795-1.028-7.717,1.333-11.3,3.553-5.415,3.49-5.461-.305-10.26,3.359-.844,5.93-2.589,12.168-8.362.858-.794,1.365-.2,2.039.181,2.142,1.192,4.1,1.571,5.394-1.429-4.181-.865-8.018.943-12,.064-2.741-.606-5.731-.17-8.593,0a3.9,3.9,0,0,0-3.791,2.656c-.511,1.681.649,2.621,1.887,3.49.8.553,1.841.986,1.819,2.231-2.741.706-5.678-2.99-8.731.628,2.543.337,4.766.653,4.919,3.631.17,3.5-1.986,6.433-6.231,8.082a41.558,41.558,0,0,0,2.135-5.082c.78-2.841-.121-3.9-2.936-3.447-6.447,1.043-13.217,1.411-16.728,8.462-.684,1.376-2.33,2.277-3.522,3.4-3.358,3.153-3.337,4.224,1.255,5.515,3.848,1.082,4.833,3.174,4.5,6.653a1.327,1.327,0,0,0,.738,1.546c5.426-2.11,5.589-2.121,5.341-6.976a3.513,3.513,0,0,1,1.192-3.185c1.851-1.571,3.337-3.631,5.709-4.571M521.608,147c-6.142,1.5-12.306,2.915-18.416,4.507a25.963,25.963,0,0,0-15.483,11.44c-3.216,4.866-5.061,10.295-6.749,15.8-3.067,9.986-5.419,20.235-10.433,29.544-.347.433-.922.943-.369,1.44s1.018.011,1.319-.543c3.943-1.787,6.2-5.309,8.313-8.731,5.547-8.983,12.717-16.48,20.377-23.6,5.7-5.288,11.224-10.781,15.689-17.182,2.663-3.805,5.546-7.6,5.958-12.5.543-.1.78-.454.443-.67-.454-.294-.734-.021-.649.5M446.54,107.726c-2.7-.922-5.472-1.66-8.071-2.794-2.763-1.2-4.28-.23-5.245,2.294a58.827,58.827,0,0,0-2.872,11.3c-1.309,7.713.369,13.8,8.461,16.728a11.479,11.479,0,0,1,1.607.908c3.887,2.071,6.284,4.965,6.444,9.674.089,2.245.184,4.919,2.614,6.674.9-2.263.259-4.224.106-6.185-.248-3.479-.564-6.944-.7-10.433-.184-4.628.5-9,4.05-12.469a5.847,5.847,0,0,0,1.993-4.358c-.021-1.309-.206-2.621-1.841-2.631-5.419-.043-5.472-3.78-5.419-7.639,2.309.965,3.22,3.663,5.614,4.539,1.255.468,2.458.77,2.883-.929.528-2.135.365-4.433-1.833-5.309-2.415-.975-4.876-3.252-7.766-1.149-.284.216-.021,1.17-.021,1.777m-163,30.867c-6.823-2.624-13.465.812-21.168.032,8.841,16.164,24.885,17.983,38.882,23.608,2.039-10.327.837-12.937-7.6-17.292-2-1.039-4.053-1.993-6.015-3.1-.791-.443-2.014-.727-1.688-2.124.94-1.135,2.33.316,3.475-.713-1.191-2.958-3.6-3.61-6.132-3.805-.585,1.518,1.766,2.05.248,3.394m257.942-10.022c4.387.238,8.341-1.692,12.536-2.461a3.224,3.224,0,0,0,2.514-1.592c1.5-3.248,4.482-3.2,7.344-3.348,4.085-.238,8.167-.184,12.231-1.028,4.486-.922,7.486-3.295,8.451-7.8.78-3.717,2.351-6.749,6.11-8.082-.943-1.894-2.589-.358-3.717-1.9-2.468-3.436-5.677-3.2-7.593.323a8.425,8.425,0,0,1-4.975,4.206,36.484,36.484,0,0,0-5.057,2.22c-7.391,3.933-14.292,8.958-23.012,9.784-1.007.1-2.419,1.028-1.95,1.9,2.036,3.791-1.592,5.376-2.763,7.887-.337.131-.674.252-1.021.369.22.152.447.443.642.422.422-.064.5-.443.259-.9m-34,15.448c4.011-.844,7.986-1.851,12.015-2.514,10.433-1.709,16.306-8.6,20.413-17.6,1.624-3.543.543-6.837-.975-10.022-1.071-2.241-2.309-4.486-5.795-3.628.344,4.4-1.475,7.866-3.979,11.635-3.117,4.7-6.412,7.582-12.121,8-2.124.163-4.1,1.8-6.21,2.571-2.468.908-3.7,2.2-2.663,5.025.77,2.1-.337,3.975-1.376,5.763-.479.284-.954.564-1.443.848a1.6,1.6,0,0,0,2.135-.078m67.965-48.081a5.7,5.7,0,0,1-6.1,1.777c-1.982-.454-4-.833-6.015-1.16-8.309-1.323-15.849.8-22.675,5.483-3.727,2.536-3.77,3.975-.716,7.238a18.168,18.168,0,0,1,3.1,3.759c2.014,3.791,2.057,3.759,6.174,2.284,7.348-2.631,13.9-7.008,21.118-9.8,4.429-1.713,6.9-3.805,6.078-8.713.823-.475,1.213-1.44.585-1.926-.869-.674-1.075.606-1.55,1.06M326.671,111.343c2.2-1.83,3.844,1.755,6.249.479-5.3-7.433-12.316-12.731-19.749-18.1-1.929,6.8-1.071,9.057,3.564,12.089,2.461,1.614,5.8,1.681,7.6,4.4-4.66,1.4-7.692-2.784-11.724-3.748-.617,5.862.39,8.2,5.9,11.909q10.745,7.229,21.051,15.047a61.817,61.817,0,0,0,10.944,6.859c2.124,1,4.245,2.546,7.054,1.649-.791-2.936-2.972-4.553-5.1-6.057-3.358-2.362-6.848-4.539-10.327-6.717-3.521-2.2-7.054-4.5-8.83-8.355a37.326,37.326,0,0,0-6.628-9.447m65.447-14.919c2.841.965,5.3,3.078,8.625,2.546,2.309-.369,3.142,1.312,3.869,3.142.833,2.1.238,4.032-.326,6.015-.6,2.1-3.068,3.717-2.025,6.174,1.018,2.4,3.649,3.2,5.589,4.649,1.149.865,2.415,1.56,3.621,2.351,1.972,1.287,3.1.3,3.692-1.507,1.365-4.2,1.117-8.515.49-12.806-.653-4.429-2.536-7.571-7.586-8.3-2.525-.369-6.153-.358-5.937-4.671.032-.78-.585-1.1-1.149-1.213-2.578-.475-4.582,1.713-7.107,1.592-1.518-.074-1.192,1.344-1.656,2.124-1.5,1.355-2.071-.248-2.809-.943-4.114-3.88-5.089-4.064-11.472-1.624,7.508,4.951,15.863,7.607,23.682,13.433-.422-4.614-3.2-5.415-5.167-6.986-1.518-1.216-4.344-1.075-4.334-3.979m-42.134,13.9c1.234,4.3,5.266,4.582,8.55,5.873.844.326,2.11.823,2.589-.454.39-1.075-.447-1.9-1.344-2.461-2.763-1.692-6.231-1.819-8.8-3.965-2.653-3.422-6.359-5.926-8.979-9.242-2.266-2.851-3.252-6.706-7.238-7.8.312-2.351,2.4-3.738,2.046-6.011-.163-1.007-.032-2.124-1.138-2.646-1.06-.486-2.025.11-2.912.575-1.4.738-1.812,2.167-2.167,3.564-.3,1.181-.206,2.819-1.376,3.295-3.348,1.365-2.224,3.553-1.021,5.4,5.149,7.876,11.518,13.976,21.789,13.877m66.965,66.38c-.312.411-.216.653.284.684a.7.7,0,0,0,.064-.337c-.011-.823.121.316-.475-.248-2.947-10.607-10.054-18.267-17.65-26.154-2.362,6.415-2.514,9.306.043,12.99a34.732,34.732,0,0,0,17.735,13.065m-3.844-98.581c-1.138-1.319,1.518-3.575-1.344-4.734-1.323,2.224-1.7,3.912,1.44,4.649-.117,5.7-.117,5.7,7.6,5.546.085-2.752-1.56-4.851-2.146-6.8-2.589-.933-3.543,1.777-5.547,1.34M413,93.878c1.053-1.082,2.255.621,3.631-.443-1.192-1.872-2.177-3.922-4.323-5.025-1.982,2.447,1.6,3.564.78,5.568-.078.184-.089.486-.216.553-1.021.518-2.557.77-1.032,2.383.631.67,1.56.975,2.146.411,1.17-1.149-.379-1.592-.833-2.341A2.948,2.948,0,0,1,413,93.878m124.15-12.965c1.865-1.312,2.436-2.982,1.333-5.55-.716,1.919-1.312,3.511-1.908,5.093-.532.142-1.138.628-.855,1,.759.954,1.05-.053,1.429-.539M214.383,91.583c.66-.316,1.724.291,1.982-.879.021-.117-.216-.422-.348-.422a1.413,1.413,0,0,0-1.688,1.312l-.1.174Zm424.6,20.973c.49-.238.965-.475,1.454-.7-.564.085-1.181.39-1.419-.479-1.386-1.536.369-2.025,1.018-2.763a56.966,56.966,0,0,0,7.007-10.086c1.27-2.209.252-4.064-1.972-4.961-2.142-.855-2.305.759-2.362,2.33-.043,1.33-.78,1.894-1.961,1.192-2.394-1.429-4.9.163-7.213-.379-4.043-.965-6.316.638-7.27,4.507-5.373-3.727-7.919-4.022-11.529-1.465-1.731,1.227-3.259,2.709-2.621,5.093.553,2.071,2.351,2.578,4.248,2.99,3.075.684,5.937-.138,8.763-1.44a2.457,2.457,0,0,1-.922,2.578c-3.749,3.11-7.788,1.528-11.763.77-1-.184-2.082-.617-2.731.521a3.026,3.026,0,0,0,.248,3.465c1.528,1.9,3.77,2.309,6.068,2.482,5.451.422,10.564-.965,15.653-2.688,1.582-.528,2.983-2.263,4.954-1,1.05,1.117-.348,1.323-.716,1.908-10.227,3.759-20.554,7.107-31.679,6.468-5.256-.3-10.455-.585-12.558,6.185-2.135-4.256-2.2-4.17-5.525-2.309-1.472.837-2.046,2.819-4.518,2.525-5.426-.638-10.4,1.919-15.59,3.014-2.45.507-4.075,1.787-3.7,4.688.411,3.1-1.44,5.082-3.8,6.5-2.958,1.791-5.958,3.631-9.664,3.295.195-2.557,2.805-2.436,4.181-3.685,2.33-2.131,5.245-3.748,5.709-7.461-16.217,1.582-35.96,12.8-35.7,24.484,3.348.411,5.263-1.777,7.05-4.018,1.528-1.919,2.72-4.107,4.27-6,1.408-1.734,2.926-3.443,5.536-3.39,3.025.064,6.036-.021,9.057-.032-1.44,1.55-3.412,1.915-5.32,2.578a18.253,18.253,0,0,0-9.185,7.181c9.469-1.365,17.462-4.507,25.406-7.8,11.557-4.791,23.239-9.21,35.587-11.6,5.625-1.1,11.238-2.341,16.785-3.784,4.745-1.213,9.564-2.447,12.664-6.866a4.889,4.889,0,0,1,3.727-1.972c4.639-.3,6.727-3.337,8.04-7.295a3.24,3.24,0,0,0,2.284-2.578M533.471,83.434c-.507.532-1.5,1.075-.422,1.8.468.3.986-.39,1.149-.986.553-.142,1.16-.574.922-1.021-.553-1.039-1.128-.174-1.649.206M661.912,50.488c.943.248,2.067-.358,3.067.922A8.22,8.22,0,0,1,660.22,54.7a1.737,1.737,0,0,0-1.341,1.812,1.594,1.594,0,0,0,1.582,1.571,14.19,14.19,0,0,1,9.6,3.475,1.807,1.807,0,0,0,1.681.273c3.532-2.979,7.011-.77,10.5-.035a45.126,45.126,0,0,0,9.827.543c4.681-.032,9.536-.67,13.359,3.121.759.748,1.908.454,2.915.575,3.227.358,6.447.638,8.862,3.49.965,1.138,2.794,1.656,4.333,2.167a77.334,77.334,0,0,0,8.894,2.479c3.174.631,3.411,4.28,6.511,5.472,2.873,1.106,5.362,3.521,8.852,3.532-1.181,3.674-4.312.3-5.795,2.231.638,4.454,3.681,2.092,5.741,1.919,1.117,1.8-1.234,2.5-1.075,4.107,2.319.216,4.476.422,6.547.617.238,2.135-1.107,2.167-2.33,2.372-9.362,1.539-18.831,1.486-28.268,1.929-6.575.316-13.164.238-19.739.465-1.876.067-3.933-.518-5.039,2.319-.617,1.592-3.954,1.713-4.625.379-2.741-5.472-7.781-2.99-11.724-3.649-2.663-.457-4.951,1.787-6.238,4.323-2.656,5.22-7.174,7.692-12.625,8.926-2,.443-3.975,1.028-5.979,1.493-6.015,1.422-11,4.238-14.476,9.611-3.965,6.132-10.224,9.33-16.65,12.245-10.575,4.8-21.941,6.8-33.108,9.469a147.97,147.97,0,0,0-16.48,5c-12.731,4.639-25.516,9.146-38.3,13.639a126.094,126.094,0,0,0-14.646,6.447,32.187,32.187,0,0,0-12.1,10.27c-11.33,16.068-24.885,30.119-39.531,43.088A53.763,53.763,0,0,0,452.5,247.043c-2.341,8.5-5.266,16.877-6.717,25.59-2,11.958-.238,23.324,6.369,33.726a43.458,43.458,0,0,0,7.348,8.277,29.116,29.116,0,0,1,3.011,3.089c1.571,2.036.986,3.326-1.66,3.7a14.21,14.21,0,0,1-3.681,0,24.386,24.386,0,0,0-12.157.975,14.143,14.143,0,0,1-10.249-.326,15.9,15.9,0,0,0-10.291-.369c-4,1.128-8.171.78-12.2,1.571a7.149,7.149,0,0,1-3.6-.511c-2.837-1.018-3.4-2.674-1.95-5.241a5.441,5.441,0,0,1,1.1-1.486c7.692-6.164,9.025-15.363,11.277-24.041a106.331,106.331,0,0,0,2.266-13.359,26.465,26.465,0,0,0-2.188-15.036c-.89-1.865-1.865-3.674-2.624-5.592-3.887-9.923-11.05-16.888-20.54-21.115-18.342-8.178-33.381-20.856-48.138-34.02-2.231-1.993-4.983-3.617-5.21-7.259-.1-1.677-1.94-2.568-3.153-3.628a64.622,64.622,0,0,0-18.937-11.366c-15.114-5.958-30.825-10.15-46.166-15.405-10.877-3.727-21.583-7.919-32.6-11.256-16.65-5.029-29.435-15.288-38.829-29.739-4.756-7.327-9.869-13.955-17.767-18.345-6.231-3.465-8.235-9.447-6.458-16.249-5.763,0-11.061-.021-16.37.011-1.84.011-3.77.521-5.536.174-9.611-1.919-19.168-.489-28.743.216-3.49.259-7,.184-10.49.1a20.842,20.842,0,0,1-4.2-.791c-1.883-.454-1.667-3.553-3.954-3.369-1.56.121-2.958,1.55-4.681.585,1.291-3.511,1.291-3.511,6.522-3.922.457.262.986.8,1.433.206.39-.539.021-1.05-.585-1.309-1.216-2.568-3.631-3.2-6.068-3.61-5.419-.919-10.717-2.61-16.349-2.188-2.656.2-4.217-1.777-3.933-4.312.312-2.784,2.436-2.436,4.224-2.188,8.94,1.223,17.6-.475,26.229-2.415a33.53,33.53,0,0,1,7.922-1.039c3.085.064,6.142.043,7.9-3.394,1.06-2.046,2.826-1.635,4.8-.887,2.362.9,5.146,2.341,6.922-1.181a1.871,1.871,0,0,1,.89-.727c3.77,3.036,6.1-1.419,9.231-1.787,3.316-.4,6.564.184,9.848.121,3.089-.057,6.217-.174,8.5-2.741,1.876-2.114,4.355-2.22,6.827-1.972,6.77.681,13.554-.663,20.335.152,1.755.206,3.632-.489,5.44-.805,1.624-.28,3.4-1.2,4.82-.8,6.178,1.734,11.213-1.245,16.49-3.443,6.543-2.731,13.206-4.344,20.423-2.894,2.663.543,5.7,1.16,7.855-1.851,1.113-1.55,2.947-1,4.582-.628,2.4.539,4.8,1.1,7.238,1.482,1.16.174,3.064.379,3.227-.933.479-4,3.241-2.727,5.493-2.805,3.685-.117,8.008,1.766,10.185-3.185,4.571-.475,7.692-4.5,12.752-4.465a47.56,47.56,0,0,0,16.292-2.968c7.227-2.589,14.572-2.2,21.92-1,7.713,1.28,15.363,3.046,23.087-.021,2.255-.887,4.486.142,6.5,1.181a8.54,8.54,0,0,0,7.692.553c.564-.238,1.408-.812,1.67-.617,4.245,3.107,7.149-1.227,10.692-1.855,1.95-.344,3.39-1.6,5.915-1.114,4.064.78,5.536-1.812,4.355-6.11a20.069,20.069,0,0,0-.77-2.341c-.844-2.124.2-3.209,2.146-3.415,3.642-.379,7.508.021,9.469-4.277.489-1.075,1.833-.3,2.809-.142a43.279,43.279,0,0,0,12.3.074c2.167-.27,4.224-.681,5.9-2.731,2.415-2.947,6.316-2.716,9.717-2.837,5.745-.206,11.508.131,17.271.174,3.7.021,7.412.131,11.082-.152,5.539-.433,5.288-.163,11.409,3.553,2.373,1.429,4.759,5.525,9.167,2.362,1.191-.855,4.419,1.855,5.873,3.621,1.007,1.223,5.319,2.458,1.461,5.426-.823.638.532,1.9.911,1.809,2.394-.539,4.4,2.915,7,.521.826-.748,2.255-.27,3.372.238-.684,2.557-4.216,2.146-4.543,5.646,5.734-.121,11.465,1.181,17.044-.543s11.862-1.656,16.458-6.132c1.124-1.106,2.294.064,3.422.358,4.128,1.092,8.181,2.947,12.469.333.684-.411,2,.035,2.958.294,5.139,1.429,10.284,2.883,15.387,4.44,2.046.621,4,.954,5.578,3.178,1.2,1.688,4.323,2.706,6.621,2.773a13.3,13.3,0,0,1,8.341,3.812,9.317,9.317,0,0,0,7.692,2.362c2.461-.184,4.929-.184,7.391-.411,1.787-.153,3.575-.933,4.755,1.344.553,1.06,1.862.5,2.837.443,7.206-.358,14.387-.085,21.594.174,2.947.106,5.99,1.05,8.972-.943,1.5-1.007,3.575.489,5.178,1.312,3.294,1.688,6.458,3.475,10.355,3.628,2.3.1,3.717,1.628,3.252,4.227-.475.312-.876.759-.454,1.287.4.5.965.216,1.44-.053" transform="translate(218.374 13.43)" fill="#fff"/>
    <path id="Path_17" data-name="Path 17" d="M477.465,46.341v6.922q0,84.25-.011,168.514c0,7.327.844,6.848-7.064,6.848H137.685c-7.38,0-6.805.369-6.805-6.543q0-77.781.021-155.556c0-1.8-.465-3.685.606-5.688,3.273-.262,6.231,1.4,9.362,2.057a2.671,2.671,0,0,1,2.22,3.163c-.1,1.429-.021,2.883-.021,4.323V206.794c0,1.238-.011,2.472.011,3.706.064,5.915.064,5.958,6.22,5.958q62.339.032,124.689.011a34.689,34.689,0,0,0,3.7-.021c2.926-.312,4.745.337,6.121,3.49,2.642,6.047,8.2,7.94,14.324,7.323,4.475-.465,9.047-.422,13.433-1.734a10.135,10.135,0,0,1,6.653.369,20.586,20.586,0,0,0,14.472.142,19.387,19.387,0,0,1,8.518-.692c6.685.638,12.891.1,15.916-7.327.833-2.025,2.716-1.493,4.288-1.5,7.617-.035,15.224-.011,22.838-.011h74.076c1.44,0,2.88-.057,4.323-.011,1.8.053,2.632-.77,2.6-2.557-.021-1.649.021-3.295.021-4.944V57.154a35.839,35.839,0,0,0-.032-4.323c-.326-2.837.855-4.064,3.674-4.433a81.146,81.146,0,0,0,8.557-2.057" transform="translate(333.061 117.999)" fill="#fff"/>
    <path id="Path_18" data-name="Path 18" d="M131.448,50.067a15.779,15.779,0,0,1-.564-2.536c-.021-14.4.043-28.8-.075-43.194-.021-3.121.865-4.66,4.17-4.28a32.283,32.283,0,0,0,3.706.021Q304.074.078,469.462.1c9.2,0,7.912-1.092,7.965,7.713.053,9.664-.032,19.342-.078,29.005a4.49,4.49,0,0,1-.387,1.2c-3.557.887-6.632,1.149-9.525-2.3-1.245-1.493-2.231-2.5-2.209-4.465.053-5.351-.042-10.692.032-16.044.021-2.025-.606-3.121-2.805-2.947-1.018.074-2.06,0-3.089,0-4.312,0-8.635.043-12.958-.011-28.1-.358-56.273,1.376-84.278-2.341-16.912,1.95-34.084-1.982-50.922,2.209-1.745.433-3.681.131-5.536.131q-77.143.016-154.279.011c-1.234,0-2.468-.021-3.7,0-4.585.106-4.639.106-4.66,4.844-.032,8.642.032,17.278-.021,25.924-.021,4.217-.1,4.3-4.475,4.323-2.589.021-5.156-.2-7.086,2.709" transform="translate(333.082 0)" fill="#fff"/>
    <path id="Path_19" data-name="Path 19" d="M139.546,41.552c-2-.053-1.667-1.291-1.312-2.557,1.9.11,2.341.954,1.312,2.557" transform="translate(351.304 99.294)" fill="#fff"/>
    <path id="Path_20" data-name="Path 20" d="M142.611,35.172c.844.064,2.036-.216,1.323,1.365-1.064.142-1.628-.184-1.323-1.365" transform="translate(362.924 89.559)" fill="#fff"/>
    <path id="Path_21" data-name="Path 21" d="M142.341,34.82c.812.1,1.451.369,1.344,1.376-1,.074-1.94.1-1.344-1.376" transform="translate(361.974 88.663)" fill="#fff"/>
    <path id="Path_22" data-name="Path 22" d="M196.857,32a1.6,1.6,0,0,1,1.355-1.365c.475,1.376-.284,1.518-1.355,1.365" transform="translate(501.261 78.017)" fill="#fff"/>
    <path id="Path_23" data-name="Path 23" d="M197.2,31.647a1.634,1.634,0,0,1,1.355-1.355c.553,1.45-.1,1.7-1.355,1.355" transform="translate(502.145 77.133)" fill="#fff"/>
    <path id="Path_24" data-name="Path 24" d="M200.355,26.814c.844.064,1.982-.142,1.344,1.376-.759-.163-1.486-.348-1.344-1.376" transform="translate(510.122 68.277)" fill="#fff"/>
    <path id="Path_25" data-name="Path 25" d="M233.615,39.323c-3.131,5.525-3.131,5.525-7.149,2.848,2.067-.823,3.986-1.582,7.149-2.848" transform="translate(576.655 100.129)" fill="#fff"/>
    <path id="Path_26" data-name="Path 26" d="M187.46,34.136c1.018-.121,1.3.511,1.376,1.355-1.2.3-1.333-.489-1.376-1.355" transform="translate(477.334 86.883)" fill="#fff"/>
    <path id="Path_27" data-name="Path 27" d="M141.511,43.218c1.635-1.117,2.33-.348,2.589,1.291-1.472.791-2.284.27-2.589-1.291" transform="translate(360.333 108.707)" fill="#fff"/>
    <path id="Path_28" data-name="Path 28" d="M243.6,35.689a4.509,4.509,0,0,1,.348.855c.021.121-.206.294-.326.436-.844.2-1.7,1.124-2.546-.025.184-1.741.738-2.716,2.525-1.266" transform="translate(613.86 89.085)" fill="#fff"/>
    <path id="Path_29" data-name="Path 29" d="M152.993,35.013c1.277-.348,2.546-.67,2.61,1.344-1.06-.089-2.263.106-2.61-1.344" transform="translate(389.569 88.495)" fill="#fff"/>
  </g>
</svg>
